<?xml version="1.0" encoding="UTF-8"?>
<svg version="1.1" xmlns="http://www.w3.org/2000/svg" width="100" height="100">
<path d="M0 0 C2.66572015 0.49313497 5.29815717 0.72523632 8 1 C8 1.66 8 2.32 8 3 C7.34 3.33 6.68 3.66 6 4 C7.32 4.66 8.64 5.32 10 6 C9.01 6 8.02 6 7 6 C8.37818179 9.85509837 9.82341712 13.52184243 12 17 C15.43992779 17.75333604 15.43992779 17.75333604 19 18 C21.68127661 20.30070832 23.51733646 22.79699402 25 26 C25.19205216 28.69883826 24.77107367 30.35631883 24 33 C22.515 33.495 22.515 33.495 21 34 C20.74394296 38.10331249 20.74394296 38.10331249 21.98046875 41.9296875 C23.74615329 45.51517718 23.6802261 49.10722096 23 53 C21.28631391 56.07061968 19.19098548 58.40450726 16 60 C14.9275 59.9175 13.855 59.835 12.75 59.75 C8.47924833 60.03471678 7.77144 61.048464 4.8046875 63.87890625 C1.04377596 66.21523009 -3.75796246 65.60875161 -8 65 C-10.3359375 63.97265625 -10.3359375 63.97265625 -12 63 C-12.70125 63.61875 -13.4025 64.2375 -14.125 64.875 C-19.18276962 68.61335145 -23.76700502 69.53732715 -30 69 C-35.24188192 67.65264949 -38.18517907 65.81482093 -42 62 C-44.30988315 61.25613932 -46.64315944 60.57809297 -49 60 C-50 59 -50 59 -50.25 56.0625 C-50.12625 54.5465625 -50.12625 54.5465625 -50 53 C-49.01 52.34 -48.02 51.68 -47 51 C-46.67 50.01 -46.34 49.02 -46 48 C-47.051875 48.103125 -48.10375 48.20625 -49.1875 48.3125 C-53 48 -53 48 -55.8125 46.0625 C-58.27638576 42.61305994 -58.92111361 40.01810306 -59.54296875 35.890625 C-59.69378906 35.26671875 -59.84460938 34.6428125 -60 34 C-60.66 33.67 -61.32 33.34 -62 33 C-62 32.34 -62 31.68 -62 31 C-61.278125 30.7525 -60.55625 30.505 -59.8125 30.25 C-56.74678041 28.88745796 -54.56170882 27.14629658 -52 25 C-51.34 24.67 -50.68 24.34 -50 24 C-49.566875 23.071875 -49.13375 22.14375 -48.6875 21.1875 C-46.57031105 17.18836531 -44.02501129 15.01250564 -40 13 C-38.29297265 12.93003986 -36.58331997 12.91559846 -34.875 12.9375 C-33.96492188 12.94652344 -33.05484375 12.95554687 -32.1171875 12.96484375 C-31.06917969 12.98224609 -31.06917969 12.98224609 -30 13 C-29.9071875 11.948125 -29.9071875 11.948125 -29.8125 10.875 C-28.32459263 5.61009701 -24.99761525 2.31124254 -20.375 -0.375 C-13.60850478 -3.45651585 -6.68907793 -2.78711581 0 0 Z " fill="#C6EBE4" transform="translate(69,16)"/>
<path d="M0 0 C0.98178223 -0.00430527 0.98178223 -0.00430527 1.98339844 -0.00869751 C3.36524319 -0.01073618 4.74711693 -0.00521996 6.12890625 0.00732422 C8.2428445 0.02338314 10.35487113 0.00747149 12.46875 -0.01171875 C13.81250422 -0.00973628 15.15625724 -0.00589252 16.5 0 C17.72203125 0.00338379 18.9440625 0.00676758 20.203125 0.01025391 C23.25 0.3984375 23.25 0.3984375 25.14916992 1.50146484 C26.82152545 4.38330172 26.62135594 6.83825105 26.61328125 10.1484375 C26.61402901 11.13021973 26.61402901 11.13021973 26.61479187 12.13183594 C26.61245457 13.51370281 26.60274615 14.89557419 26.58618164 16.27734375 C26.5625829 18.39101274 26.5656232 20.50342018 26.57226562 22.6171875 C26.52925898 32.97954903 26.52925898 32.97954903 24.25 36.3984375 C22.09521484 36.83081055 22.09521484 36.83081055 19.4609375 36.91015625 C18.51992188 36.94560547 17.57890625 36.98105469 16.609375 37.01757812 C15.62453125 37.04013672 14.6396875 37.06269531 13.625 37.0859375 C12.63242187 37.12009766 11.63984375 37.15425781 10.6171875 37.18945312 C8.16157094 37.27209407 5.70631859 37.34118877 3.25 37.3984375 C2.92 39.0484375 2.59 40.6984375 2.25 42.3984375 C-3.25421092 43.43047705 -8.55210494 43.45412968 -14.125 43.2109375 C-14.83914062 43.19297119 -15.55328125 43.17500488 -16.2890625 43.15649414 C-18.3359375 43.04296875 -18.3359375 43.04296875 -21.75 42.3984375 C-23.2265625 40.34765625 -23.2265625 40.34765625 -23.75 38.3984375 C-23.09 37.7384375 -22.43 37.0784375 -21.75 36.3984375 C-20.76 36.3984375 -19.77 36.3984375 -18.75 36.3984375 C-18.75 35.7384375 -18.75 35.0784375 -18.75 34.3984375 C-17.1 34.3984375 -15.45 34.3984375 -13.75 34.3984375 C-13.5953125 33.4703125 -13.5953125 33.4703125 -13.4375 32.5234375 C-12.75 30.3984375 -12.75 30.3984375 -9.75 28.3984375 C-9.38236268 25.8283337 -9.38236268 25.8283337 -9.5625 22.83984375 C-9.58570313 21.73189453 -9.60890625 20.62394531 -9.6328125 19.48242188 C-9.71080765 17.13866755 -9.78893222 14.79491753 -9.8671875 12.45117188 C-9.89039063 11.34193359 -9.91359375 10.23269531 -9.9375 9.08984375 C-9.98970703 7.56145874 -9.98970703 7.56145874 -10.04296875 6.00219727 C-9.75 3.3984375 -9.75 3.3984375 -8.66015625 1.56762695 C-5.78181395 -0.19418047 -3.35182961 0.00928117 0 0 Z " fill="#F9F7EA" transform="translate(43.75,32.6015625)"/>
<path d="M0 0 C2.66572015 0.49313497 5.29815717 0.72523632 8 1 C8 1.66 8 2.32 8 3 C7.34 3.33 6.68 3.66 6 4 C7.32 4.66 8.64 5.32 10 6 C9.01 6 8.02 6 7 6 C8.37818179 9.85509837 9.82341712 13.52184243 12 17 C15.43992779 17.75333604 15.43992779 17.75333604 19 18 C21.68215813 20.30146472 23.51028591 22.79966364 25 26 C24.90322581 32.09677419 24.90322581 32.09677419 23 34 C20.30345146 34.07319621 17.63308542 34.09242537 14.9375 34.0625 C13.79958008 34.05573242 13.79958008 34.05573242 12.63867188 34.04882812 C10.75908129 34.0370068 8.87953101 34.01907078 7 34 C7 33.67 7 33.34 7 33 C7.99902344 32.93941406 8.99804688 32.87882812 10.02734375 32.81640625 C11.31769531 32.73261719 12.60804687 32.64882813 13.9375 32.5625 C15.22527344 32.48128906 16.51304688 32.40007813 17.83984375 32.31640625 C20.86023957 32.35080812 20.86023957 32.35080812 22 31 C22.5038007 27.47339513 21.95507415 25.91181222 20.3125 22.6875 C18.29988968 19.77102994 18.29988968 19.77102994 15.4375 19.5625 C12.8728049 19.96258968 12.8728049 19.96258968 10 21 C9.7525 20.360625 9.505 19.72125 9.25 19.0625 C8.18437567 16.81258459 8.18437567 16.81258459 5.875 16.25 C5.25625 16.1675 4.6375 16.085 4 16 C4.495 16.99 4.495 16.99 5 18 C5.28354633 22.94052564 5.31371247 27.88194001 5.35009766 32.82983398 C5.36664678 34.47971716 5.39392356 36.12952895 5.43212891 37.77905273 C5.48701149 40.16167258 5.5087871 42.54261372 5.5234375 44.92578125 C5.54610687 45.65928299 5.56877625 46.39278473 5.59213257 47.14851379 C5.57625898 51.01322774 5.12099031 52.83833766 2.78271484 55.96264648 C-0.17714268 58.12969431 -1.44531771 58.63214691 -5.046875 58.671875 C-5.97371094 58.69636719 -6.90054688 58.72085938 -7.85546875 58.74609375 C-8.81066406 58.74738281 -9.76585937 58.74867187 -10.75 58.75 C-12.66152115 58.78300103 -14.57298958 58.81927601 -16.484375 58.859375 C-17.74846191 58.86662598 -17.74846191 58.86662598 -19.03808594 58.87402344 C-21.0035279 58.78341363 -21.0035279 58.78341363 -22 60 C-24.33297433 60.04092937 -26.66705225 60.04241723 -29 60 C-29 59.67 -29 59.34 -29 59 C-26.03 58.505 -26.03 58.505 -23 58 C-23 56.35 -23 54.7 -23 53 C-15.74 52.67 -8.48 52.34 -1 52 C0.47905238 49.04189524 0.12190903 46.0452845 0.09765625 42.8046875 C0.0962413 42.09724396 0.09482635 41.38980042 0.09336853 40.66091919 C0.087766 38.39890331 0.07521318 36.13698602 0.0625 33.875 C0.05748532 32.34244935 0.05292236 30.80989714 0.04882812 29.27734375 C0.03779577 25.51819112 0.02052952 21.75911228 0 18 C-4.52065428 17.950623 -9.04115217 17.91429177 -13.56201172 17.89013672 C-15.10045098 17.88006882 -16.63887107 17.86641354 -18.17724609 17.84912109 C-20.38644133 17.82490683 -22.59538395 17.81352509 -24.8046875 17.8046875 C-25.83914505 17.78920364 -25.83914505 17.78920364 -26.89450073 17.77340698 C-28.59800906 17.77300522 -30.30085943 17.87808974 -32 18 C-34.26839977 19.83955978 -34.26839977 19.83955978 -34.22705078 22.61376953 C-34.21657715 23.69255371 -34.20610352 24.77133789 -34.1953125 25.8828125 C-34.18886719 27.04941406 -34.18242188 28.21601562 -34.17578125 29.41796875 C-34.15902344 30.64128906 -34.14226563 31.86460938 -34.125 33.125 C-34.11597656 34.35605469 -34.10695313 35.58710937 -34.09765625 36.85546875 C-34.07402548 39.90383815 -34.04108054 42.95182382 -34 46 C-34.639375 46.268125 -35.27875 46.53625 -35.9375 46.8125 C-38.33131686 47.88667752 -38.33131686 47.88667752 -39 51 C-40.65 51 -42.3 51 -44 51 C-43.67 50.34 -43.34 49.68 -43 49 C-42.01 49 -41.02 49 -40 49 C-40.01571045 47.6682373 -40.01571045 47.6682373 -40.03173828 46.30957031 C-40.06587756 43.00713493 -40.09092668 39.70488782 -40.10986328 36.40234375 C-40.11990427 34.97457922 -40.13353981 33.54683517 -40.15087891 32.11914062 C-40.17521152 30.06375059 -40.18650202 28.00863308 -40.1953125 25.953125 C-40.20578613 24.71723633 -40.21625977 23.48134766 -40.22705078 22.20800781 C-40.00943993 19.13337713 -39.73995508 17.502586 -38 15 C-34.77208445 12.8480563 -33.71599191 12.79913557 -30 13 C-29.938125 12.29875 -29.87625 11.5975 -29.8125 10.875 C-28.32459263 5.61009701 -24.99761525 2.31124254 -20.375 -0.375 C-13.60850478 -3.45651585 -6.68907793 -2.78711581 0 0 Z " fill="#78859C" transform="translate(69,16)"/>
<path d="M0 0 C2.66572015 0.49313497 5.29815717 0.72523632 8 1 C8 1.66 8 2.32 8 3 C7.34 3.33 6.68 3.66 6 4 C7.32 4.66 8.64 5.32 10 6 C9.01 6 8.02 6 7 6 C7.7734375 7.36125 7.7734375 7.36125 8.5625 8.75 C10.07262544 12.16419665 10.08784335 12.68604014 9 16 C7.83597656 15.68289062 6.67195313 15.36578125 5.47265625 15.0390625 C-1.4531503 13.49999438 -8.50113908 13.53520103 -15.5625 13.375 C-16.96681881 13.3367343 -18.37111631 13.29767788 -19.77539062 13.2578125 C-23.18346604 13.16411971 -26.59154423 13.07839926 -30 13 C-29.1052456 7.43368578 -26.76890736 4.04057799 -22.27734375 0.73046875 C-15.10187187 -3.43926132 -7.48675061 -3.11947942 0 0 Z " fill="#C9EDE6" transform="translate(69,16)"/>
<path d="M0 0 C2.83417376 0.19773305 4.2159195 0.87447286 6.6875 2.1875 C7.925 2.31125 7.925 2.31125 9.1875 2.4375 C11.6875 3.1875 11.6875 3.1875 14 5.875 C15.78647513 9.3817845 16.1374297 11.31810461 15.6875 15.1875 C12.91962904 17.95537096 4.48175962 16.42290143 0.75 16.4375 C-0.56419922 16.458125 -1.87839844 16.47875 -3.23242188 16.5 C-4.48474609 16.50515625 -5.73707031 16.5103125 -7.02734375 16.515625 C-8.18355225 16.5249707 -9.33976074 16.53431641 -10.53100586 16.54394531 C-11.90784546 16.36750488 -11.90784546 16.36750488 -13.3125 16.1875 C-15.3125 13.1875 -15.3125 13.1875 -15.0625 11.125 C-14.3125 9.1875 -14.3125 9.1875 -12.3125 7.1875 C-11.3225 7.1875 -10.3325 7.1875 -9.3125 7.1875 C-9.3125 6.5275 -9.3125 5.8675 -9.3125 5.1875 C-7.34527992 3.80626037 -5.34381672 2.47261874 -3.3125 1.1875 C-2.3125 0.1875 -2.3125 0.1875 0 0 Z " fill="#B3C2CF" transform="translate(51.3125,41.8125)"/>
<path d="M0 0 C0.74652832 -0.00428513 1.49305664 -0.00857025 2.26220703 -0.01298523 C3.8458556 -0.01872921 5.42953055 -0.01922827 7.01318359 -0.01489258 C9.40119521 -0.01176628 11.7879259 -0.03507048 14.17578125 -0.06054688 C23.30290288 -0.09766549 32.08065377 0.12235814 40.4375 4.30078125 C41.79875 4.33171875 41.79875 4.33171875 43.1875 4.36328125 C47.43348452 5.58808448 48.9081434 7.52837132 51.375 11.09375 C52.98143502 14.43064627 52.49643242 16.84160202 51.4375 20.30078125 C50.4375 21.30078125 50.4375 21.30078125 46.83984375 21.3984375 C45.35153133 21.39176345 43.86323568 21.37980308 42.375 21.36328125 C41.61638672 21.35876953 40.85777344 21.35425781 40.07617188 21.34960938 C38.19658129 21.33778805 36.31703101 21.31985203 34.4375 21.30078125 C34.4375 20.97078125 34.4375 20.64078125 34.4375 20.30078125 C35.43652344 20.24019531 36.43554688 20.17960937 37.46484375 20.1171875 C38.75519531 20.03339844 40.04554687 19.94960938 41.375 19.86328125 C42.66277344 19.78207031 43.95054688 19.70085938 45.27734375 19.6171875 C48.29773957 19.65158937 48.29773957 19.65158937 49.4375 18.30078125 C49.9413007 14.77417638 49.39257415 13.21259347 47.75 9.98828125 C45.73738968 7.07181119 45.73738968 7.07181119 42.875 6.86328125 C40.3103049 7.26337093 40.3103049 7.26337093 37.4375 8.30078125 C37.19 7.66140625 36.9425 7.02203125 36.6875 6.36328125 C35.62187567 4.11336584 35.62187567 4.11336584 33.3125 3.55078125 C32.384375 3.42703125 32.384375 3.42703125 31.4375 3.30078125 C31.9325 4.29078125 31.9325 4.29078125 32.4375 5.30078125 C32.72104633 10.24130689 32.75121247 15.18272126 32.78759766 20.13061523 C32.80414678 21.78049841 32.83142356 23.4303102 32.86962891 25.07983398 C32.92451149 27.46245383 32.9462871 29.84339497 32.9609375 32.2265625 C32.98360687 32.96006424 33.00627625 33.69356598 33.02963257 34.44929504 C33.01375898 38.31400899 32.55849031 40.13911891 30.22021484 43.26342773 C27.26035732 45.43047556 25.99218229 45.93292816 22.390625 45.97265625 C21.46378906 45.99714844 20.53695312 46.02164063 19.58203125 46.046875 C18.62683594 46.04816406 17.67164063 46.04945312 16.6875 46.05078125 C14.77597885 46.08378228 12.86451042 46.12005726 10.953125 46.16015625 C9.68903809 46.16740723 9.68903809 46.16740723 8.39941406 46.17480469 C6.4339721 46.08419488 6.4339721 46.08419488 5.4375 47.30078125 C3.10452567 47.34171062 0.77044775 47.34319848 -1.5625 47.30078125 C-1.5625 46.97078125 -1.5625 46.64078125 -1.5625 46.30078125 C1.4075 45.80578125 1.4075 45.80578125 4.4375 45.30078125 C4.4375 43.65078125 4.4375 42.00078125 4.4375 40.30078125 C5.0975 40.30078125 5.7575 40.30078125 6.4375 40.30078125 C6.4375 41.29078125 6.4375 42.28078125 6.4375 43.30078125 C10.06342996 43.22017534 13.68764402 43.10731308 17.3125 42.98828125 C18.34503906 42.96572266 19.37757812 42.94316406 20.44140625 42.91992188 C21.42753906 42.88447266 22.41367187 42.84902344 23.4296875 42.8125 C24.34089355 42.78631592 25.25209961 42.76013184 26.19091797 42.7331543 C27.30297607 42.51912964 27.30297607 42.51912964 28.4375 42.30078125 C30.84241105 38.69341467 30.72732863 36.0611685 30.703125 31.89453125 C30.70503845 31.17342163 30.7069519 30.45231201 30.70892334 29.70935059 C30.71028301 28.18627574 30.70660177 26.66318923 30.69824219 25.14013672 C30.68753914 22.80930542 30.69814438 20.47924483 30.7109375 18.1484375 C30.70961587 16.66796705 30.70705339 15.18749708 30.703125 13.70703125 C30.70717346 13.01009155 30.71122192 12.31315186 30.71539307 11.59509277 C30.67997329 7.93882164 30.52380382 6.43023697 28.4375 3.30078125 C25.69464531 3.00900855 23.18092461 2.90472327 20.4375 2.9375 C19.64601562 2.9370015 18.85453125 2.93650299 18.0390625 2.93598938 C16.36455781 2.93833136 14.69004971 2.94806723 13.015625 2.96459961 C10.4475976 2.9881885 7.88060814 2.98516238 5.3125 2.97851562 C3.68749379 2.98409237 2.06249196 2.99120223 0.4375 3 C-0.33335938 2.99908859 -1.10421875 2.99817719 -1.8984375 2.99723816 C-6.19377641 2.9012782 -6.19377641 2.9012782 -9.5625 5.30078125 C-9.93489227 8.11480808 -9.93489227 8.11480808 -9.9765625 11.40234375 C-10.01523437 12.6140625 -10.05390625 13.82578125 -10.09375 15.07421875 C-10.1246875 16.34523438 -10.155625 17.61625 -10.1875 18.92578125 C-10.22617187 20.20453125 -10.26484375 21.48328125 -10.3046875 22.80078125 C-10.39921049 25.96730142 -10.48476357 29.13381165 -10.5625 32.30078125 C-9.2425 32.63078125 -7.9225 32.96078125 -6.5625 33.30078125 C-7.201875 33.56890625 -7.84125 33.83703125 -8.5 34.11328125 C-10.89381686 35.18745877 -10.89381686 35.18745877 -11.5625 38.30078125 C-13.2125 38.30078125 -14.8625 38.30078125 -16.5625 38.30078125 C-16.2325 37.64078125 -15.9025 36.98078125 -15.5625 36.30078125 C-14.5725 36.30078125 -13.5825 36.30078125 -12.5625 36.30078125 C-12.57821045 34.96901855 -12.57821045 34.96901855 -12.59423828 33.61035156 C-12.62837756 30.30791618 -12.65342668 27.00566907 -12.67236328 23.703125 C-12.68240427 22.27536047 -12.69603981 20.84761642 -12.71337891 19.41992188 C-12.73771152 17.36453184 -12.74900202 15.30941433 -12.7578125 13.25390625 C-12.76828613 12.01801758 -12.77875977 10.78212891 -12.78955078 9.50878906 C-12.57193993 6.43415838 -12.30245508 4.80336725 -10.5625 2.30078125 C-6.92506379 -0.12417623 -4.20650656 -0.00535759 0 0 Z " fill="#5A4745" transform="translate(41.5625,28.69921875)"/>
<path d="M0 0 C3.98351176 0.33902228 7.44021342 1.28179612 10.9375 3.25 C12.87552376 6.19579612 13.0264138 7.58314647 12.5625 11.0625 C12.253125 12.1453125 12.253125 12.1453125 11.9375 13.25 C6.43328908 14.28203955 1.13539506 14.30569218 -4.4375 14.0625 C-5.15164062 14.04453369 -5.86578125 14.02656738 -6.6015625 14.00805664 C-8.6484375 13.89453125 -8.6484375 13.89453125 -12.0625 13.25 C-13.5390625 11.19921875 -13.5390625 11.19921875 -14.0625 9.25 C-13.4025 8.59 -12.7425 7.93 -12.0625 7.25 C-11.0725 7.25 -10.0825 7.25 -9.0625 7.25 C-9.0625 6.59 -9.0625 5.93 -9.0625 5.25 C-7.4125 5.25 -5.7625 5.25 -4.0625 5.25 C-3.918125 4.610625 -3.77375 3.97125 -3.625 3.3125 C-2.89083252 0.62055259 -2.78324364 0.33736287 0 0 Z " fill="#EFECE0" transform="translate(34.0625,61.75)"/>
<path d="M0 0 C2.475 0.495 2.475 0.495 5 1 C5.33 2.32 5.66 3.64 6 5 C6.99 4.34 7.98 3.68 9 3 C11.375 2.4375 11.375 2.4375 14 3 C16.95130633 5.86284756 18.80384248 8.7389874 19.4375 12.8125 C19 15 19 15 17 17 C14.2583392 17.30720512 11.62345231 17.51063924 8.875 17.625 C6.27625 17.74875 3.6775 17.8725 1 18 C0.67 12.06 0.34 6.12 0 0 Z " fill="#F8F6EA" transform="translate(73,32)"/>
<path d="M0 0 C0.33 0 0.66 0 1 0 C1.07426356 4.62642926 1.12865492 9.25251009 1.16479492 13.87939453 C1.17986364 15.45269822 1.20032245 17.02596002 1.22631836 18.59912109 C1.26278738 20.86306096 1.27974508 23.12644457 1.29296875 25.390625 C1.30845261 26.09181458 1.32393646 26.79300415 1.33988953 27.51544189 C1.34092145 30.52288798 1.1305967 32.73306374 -0.19921875 35.45117188 C-2.60258115 37.51827207 -3.96239984 37.46329711 -7.10546875 37.390625 C-8.57983398 37.37128906 -8.57983398 37.37128906 -10.08398438 37.3515625 C-11.10814453 37.31804687 -12.13230469 37.28453125 -13.1875 37.25 C-14.22326172 37.23195312 -15.25902344 37.21390625 -16.32617188 37.1953125 C-18.88504284 37.14814437 -21.44205842 37.08234057 -24 37 C-24 36.01 -24 35.02 -24 34 C-14.1 33.505 -14.1 33.505 -4 33 C-2.73833026 30.47666051 -2.82496015 28.62308039 -2.75390625 25.80078125 C-2.72103516 24.75599609 -2.68816406 23.71121094 -2.65429688 22.63476562 C-2.59364112 20.4395435 -2.53628864 18.24422733 -2.48242188 16.04882812 C-2.29738553 10.35459651 -1.90264965 5.38442147 0 0 Z " fill="#6E81A0" transform="translate(72,35)"/>
<path d="M0 0 C1.15892509 0.00424484 1.15892509 0.00424484 2.34126282 0.00857544 C4.80709368 0.01976372 7.27256031 0.04486547 9.73828125 0.0703125 C11.41080204 0.08034407 13.08332853 0.08946961 14.75585938 0.09765625 C18.85430684 0.11969858 22.95248231 0.15421887 27.05078125 0.1953125 C26.72078125 0.8553125 26.39078125 1.5153125 26.05078125 2.1953125 C25.03129395 2.21513184 24.01180664 2.23495117 22.96142578 2.25537109 C19.18545477 2.33134058 15.40987352 2.42007059 11.63427734 2.51269531 C9.99893885 2.55102102 8.36351501 2.58586757 6.72802734 2.6171875 C4.37957215 2.66276092 2.0317063 2.72076617 -0.31640625 2.78125 C-1.41648514 2.79857681 -1.41648514 2.79857681 -2.53878784 2.81625366 C-6.6989898 2.81399347 -6.6989898 2.81399347 -9.94921875 5.1953125 C-10.32161102 8.00933933 -10.32161102 8.00933933 -10.36328125 11.296875 C-10.40195312 12.50859375 -10.440625 13.7203125 -10.48046875 14.96875 C-10.51140625 16.23976563 -10.54234375 17.51078125 -10.57421875 18.8203125 C-10.61289062 20.0990625 -10.6515625 21.3778125 -10.69140625 22.6953125 C-10.78592924 25.86183267 -10.87148232 29.0283429 -10.94921875 32.1953125 C-9.62921875 32.5253125 -8.30921875 32.8553125 -6.94921875 33.1953125 C-7.58859375 33.4634375 -8.22796875 33.7315625 -8.88671875 34.0078125 C-11.28053561 35.08199002 -11.28053561 35.08199002 -11.94921875 38.1953125 C-13.59921875 38.1953125 -15.24921875 38.1953125 -16.94921875 38.1953125 C-16.61921875 37.5353125 -16.28921875 36.8753125 -15.94921875 36.1953125 C-14.95921875 36.1953125 -13.96921875 36.1953125 -12.94921875 36.1953125 C-12.9649292 34.8635498 -12.9649292 34.8635498 -12.98095703 33.50488281 C-13.01509631 30.20244743 -13.04014543 26.90020032 -13.05908203 23.59765625 C-13.06912302 22.16989172 -13.08275856 20.74214767 -13.10009766 19.31445312 C-13.12443027 17.25906309 -13.13572077 15.20394558 -13.14453125 13.1484375 C-13.15500488 11.91254883 -13.16547852 10.67666016 -13.17626953 9.40332031 C-12.95865868 6.32868963 -12.68917383 4.6978985 -10.94921875 2.1953125 C-7.20917558 -0.29804961 -4.32360266 -0.05949978 0 0 Z " fill="#61585D" transform="translate(41.94921875,28.8046875)"/>
<path d="M0 0 C0.99 0.33 1.98 0.66 3 1 C2.125 4.875 2.125 4.875 1 6 C-0.63472882 6.08700342 -2.27314055 6.10701063 -3.91015625 6.09765625 C-4.89951172 6.09443359 -5.88886719 6.09121094 -6.90820312 6.08789062 C-7.94912109 6.07951172 -8.99003906 6.07113281 -10.0625 6.0625 C-11.10728516 6.05798828 -12.15207031 6.05347656 -13.22851562 6.04882812 C-15.8190666 6.03699913 -18.40950559 6.02051689 -21 6 C-21 5.01 -21 4.02 -21 3 C-11.1 2.505 -11.1 2.505 -1 2 C-0.67 1.34 -0.34 0.68 0 0 Z " fill="#7F93AE" transform="translate(69,66)"/>
<path d="M0 0 C0.66 0 1.32 0 2 0 C2 1.32 2 2.64 2 4 C3.65 4 5.3 4 7 4 C7 4.99 7 5.98 7 7 C4.85423363 7.02685938 2.70837355 7.04633088 0.5625 7.0625 C-0.63246094 7.07410156 -1.82742187 7.08570313 -3.05859375 7.09765625 C-6 7 -6 7 -7 6 C-7.99 6.33 -8.98 6.66 -10 7 C-10.66 6.67 -11.32 6.34 -12 6 C-12 5.34 -12 4.68 -12 4 C-9.36 4 -6.72 4 -4 4 C-4 3.34 -4 2.68 -4 2 C-2.68 2 -1.36 2 0 2 C0 1.34 0 0.68 0 0 Z " fill="#E3F6F2" transform="translate(19,43)"/>
<path d="M0 0 C0.66 0.33 1.32 0.66 2 1 C1.01 2.485 1.01 2.485 0 4 C-0.36844508 6.8086043 -0.36844508 6.8086043 -0.4140625 9.98046875 C-0.45273437 11.14384766 -0.49140625 12.30722656 -0.53125 13.50585938 C-0.5621875 14.72080078 -0.593125 15.93574219 -0.625 17.1875 C-0.66367187 18.41404297 -0.70234375 19.64058594 -0.7421875 20.90429688 C-0.83656103 23.93604656 -0.92214549 26.96778841 -1 30 C-1.66 30 -2.32 30 -3 30 C-3.08690253 25.56262288 -3.14035926 21.12546366 -3.1875 16.6875 C-3.21263672 15.42486328 -3.23777344 14.16222656 -3.26367188 12.86132812 C-3.27333984 11.65283203 -3.28300781 10.44433594 -3.29296875 9.19921875 C-3.31653442 7.52605591 -3.31653442 7.52605591 -3.34057617 5.8190918 C-3 3 -3 3 -1.48168945 1.11254883 C-0.99273193 0.74540771 -0.50377441 0.3782666 0 0 Z " fill="#7599C5" transform="translate(34,31)"/>
<path d="M0 0 C0 0.66 0 1.32 0 2 C-1.98 2.99 -1.98 2.99 -4 4 C-3.67 4.99 -3.34 5.98 -3 7 C0.63 7.33 4.26 7.66 8 8 C8 8.33 8 8.66 8 9 C6.23086176 9.22226864 4.45955629 9.42733873 2.6875 9.625 C1.20830078 9.79902344 1.20830078 9.79902344 -0.30078125 9.9765625 C-3 10 -3 10 -6 8 C-6.375 5 -6.375 5 -6 2 C-3 0 -3 0 0 0 Z " fill="#5E4440" transform="translate(25,67)"/>
<path d="M0 0 C2.375 -0.125 2.375 -0.125 5 0 C5.66 0.66 6.32 1.32 7 2 C6.9765625 4.1640625 6.9765625 4.1640625 6.625 6.625 C6.51414062 7.44226562 6.40328125 8.25953125 6.2890625 9.1015625 C6.19367188 9.72804688 6.09828125 10.35453125 6 11 C5.67 11 5.34 11 5 11 C4.67 8.36 4.34 5.72 4 3 C2.68 2.67 1.36 2.34 0 2 C0 1.34 0 0.68 0 0 Z " fill="#7FA3CD" transform="translate(65,31)"/>
<path d="M0 0 C2.64 0 5.28 0 8 0 C8 0.66 8 1.32 8 2 C5.04335481 3.4783226 2.25770263 3.06032783 -1 3 C-0.67 2.01 -0.34 1.02 0 0 Z " fill="#FCFEFD" transform="translate(69,17)"/>
<path d="M0 0 C3.63 0 7.26 0 11 0 C11 0.33 11 0.66 11 1 C10.071875 1.144375 9.14375 1.28875 8.1875 1.4375 C4.99274889 1.92100111 4.99274889 1.92100111 2 3 C1.34 2.67 0.68 2.34 0 2 C0 1.34 0 0.68 0 0 Z " fill="#F9FCFC" transform="translate(7,47)"/>
</svg>
